<svg width="112" height="24" viewBox="0 0 112 24" fill="none" xmlns="http://www.w3.org/2000/svg">
<path d="M0.000110969 18.4602L2.89784 1.00566H9.7842C11.1024 1.00566 12.1848 1.2585 13.0314 1.76418C13.8836 2.26418 14.4802 2.9602 14.8211 3.85225C15.1677 4.73861 15.2473 5.76134 15.0598 6.92043C14.8666 8.0852 14.4461 9.11077 13.7984 9.99714C13.1564 10.8778 12.3211 11.5653 11.2927 12.0596C10.2643 12.554 9.07682 12.8011 7.73022 12.8011H3.34102L3.82682 9.84373H7.61943C8.33534 9.84373 8.94613 9.72157 9.45182 9.47725C9.96318 9.22725 10.3694 8.8835 10.6706 8.446C10.9717 8.00282 11.1677 7.4943 11.2586 6.92043C11.3552 6.33521 11.324 5.82668 11.1649 5.39486C11.0058 4.96305 10.7132 4.62782 10.287 4.38918C9.86659 4.14486 9.30125 4.02271 8.59102 4.02271H6.10238L3.69045 18.4602H0.000110969ZM15.471 18.4602L17.6528 5.3693H21.2835L19.1017 18.4602H15.471ZM19.8432 3.66475C19.3034 3.66475 18.8574 3.48577 18.5051 3.12782C18.1585 2.76418 18.0164 2.33236 18.0789 1.83236C18.1414 1.321 18.3858 0.889182 18.8119 0.536909C19.238 0.178954 19.721 -2.3365e-05 20.2608 -2.3365e-05C20.8005 -2.3365e-05 21.2409 0.178954 21.5818 0.536909C21.9227 0.889182 22.0647 1.321 22.0079 1.83236C21.9511 2.33236 21.7096 2.76418 21.2835 3.12782C20.863 3.48577 20.3829 3.66475 19.8432 3.66475ZM27.0896 23.642C25.9078 23.642 24.922 23.4801 24.1322 23.1562C23.3481 22.838 22.7515 22.4034 22.3424 21.8523C21.939 21.3011 21.7174 20.6818 21.6777 19.9943L25.1208 19.5426C25.1833 19.8096 25.3027 20.0568 25.4788 20.2841C25.6606 20.5113 25.9191 20.6932 26.2544 20.8295C26.5953 20.9659 27.0356 21.0341 27.5754 21.0341C28.3652 21.0341 29.0527 20.8409 29.6379 20.4545C30.2231 20.0738 30.5839 19.4346 30.7203 18.5369L31.1123 16.142H30.9589C30.743 16.5057 30.4476 16.8494 30.0726 17.1733C29.7032 17.4971 29.2515 17.7613 28.7174 17.9659C28.189 18.1704 27.5782 18.2727 26.8851 18.2727C25.8964 18.2727 25.0385 18.0454 24.3112 17.5909C23.5896 17.1307 23.0669 16.429 22.743 15.4858C22.4248 14.5369 22.3851 13.338 22.6237 11.8892C22.8737 10.4062 23.3226 9.16759 23.9703 8.17327C24.618 7.17895 25.3851 6.43464 26.2714 5.94032C27.1578 5.446 28.0811 5.19884 29.0413 5.19884C29.7743 5.19884 30.3652 5.32384 30.814 5.57384C31.2686 5.81816 31.618 6.12498 31.8623 6.4943C32.1066 6.85793 32.2799 7.21589 32.3822 7.56816H32.5271L32.8851 5.3693H36.4902L34.2913 18.588C34.1152 19.7074 33.6919 20.6392 33.0214 21.3835C32.3566 22.1335 31.5129 22.696 30.4902 23.071C29.4674 23.4517 28.3339 23.642 27.0896 23.642ZM28.4532 15.5454C29.0328 15.5454 29.5527 15.4005 30.0129 15.1108C30.4788 14.8153 30.868 14.3949 31.1805 13.8494C31.493 13.2983 31.7118 12.6392 31.8368 11.8721C31.9618 11.1051 31.9589 10.4403 31.8282 9.87782C31.7032 9.30964 31.4589 8.8693 31.0953 8.5568C30.7373 8.2443 30.2657 8.08805 29.6805 8.08805C29.0782 8.08805 28.5498 8.24998 28.0953 8.57384C27.6407 8.89202 27.2629 9.3352 26.9618 9.90339C26.6663 10.4716 26.4589 11.1278 26.3396 11.8721C26.2146 12.6278 26.2089 13.2812 26.3226 13.8324C26.4419 14.3778 26.6777 14.8011 27.0299 15.1023C27.3822 15.3977 27.8566 15.5454 28.4532 15.5454ZM42.2771 23.642C41.0953 23.642 40.1095 23.4801 39.3197 23.1562C38.5356 22.838 37.939 22.4034 37.5299 21.8523C37.1265 21.3011 36.9049 20.6818 36.8652 19.9943L40.3083 19.5426C40.3708 19.8096 40.4902 20.0568 40.6663 20.2841C40.8481 20.5113 41.1066 20.6932 41.4419 20.8295C41.7828 20.9659 42.2231 21.0341 42.7629 21.0341C43.5527 21.0341 44.2402 20.8409 44.8254 20.4545C45.4106 20.0738 45.7714 19.4346 45.9078 18.5369L46.2998 16.142H46.1464C45.9305 16.5057 45.6351 16.8494 45.2601 17.1733C44.8907 17.4971 44.439 17.7613 43.9049 17.9659C43.3765 18.1704 42.7657 18.2727 42.0726 18.2727C41.0839 18.2727 40.226 18.0454 39.4987 17.5909C38.7771 17.1307 38.2544 16.429 37.9305 15.4858C37.6123 14.5369 37.5726 13.338 37.8112 11.8892C38.0612 10.4062 38.5101 9.16759 39.1578 8.17327C39.8055 7.17895 40.5726 6.43464 41.4589 5.94032C42.3453 5.446 43.2686 5.19884 44.2288 5.19884C44.9618 5.19884 45.5527 5.32384 46.0015 5.57384C46.4561 5.81816 46.8055 6.12498 47.0498 6.4943C47.2941 6.85793 47.4674 7.21589 47.5697 7.56816H47.7146L48.0726 5.3693H51.6777L49.4788 18.588C49.3027 19.7074 48.8794 20.6392 48.2089 21.3835C47.5441 22.1335 46.7004 22.696 45.6777 23.071C44.6549 23.4517 43.5214 23.642 42.2771 23.642ZM43.6407 15.5454C44.2203 15.5454 44.7402 15.4005 45.2004 15.1108C45.6663 14.8153 46.0555 14.3949 46.368 13.8494C46.6805 13.2983 46.8993 12.6392 47.0243 11.8721C47.1493 11.1051 47.1464 10.4403 47.0157 9.87782C46.8907 9.30964 46.6464 8.8693 46.2828 8.5568C45.9248 8.2443 45.4532 8.08805 44.868 8.08805C44.2657 8.08805 43.7373 8.24998 43.2828 8.57384C42.8282 8.89202 42.4504 9.3352 42.1493 9.90339C41.8538 10.4716 41.6464 11.1278 41.5271 11.8721C41.4021 12.6278 41.3964 13.2812 41.5101 13.8324C41.6294 14.3778 41.8652 14.8011 42.2174 15.1023C42.5697 15.3977 43.0441 15.5454 43.6407 15.5454ZM53.8254 23.3693C53.3595 23.3693 52.9333 23.3324 52.547 23.2585C52.1606 23.1903 51.8424 23.1023 51.5924 22.9943L52.8708 20.2841C53.2743 20.4148 53.6407 20.4829 53.9703 20.4886C54.3055 20.4943 54.6123 20.4091 54.8907 20.2329C55.1691 20.0568 55.4248 19.767 55.6578 19.3636L55.9816 18.8096L53.5271 5.3693H57.2089L58.3169 15H58.4532L62.7913 5.3693H66.7714L59.2799 19.875C58.9106 20.5852 58.4731 21.2017 57.9674 21.7244C57.4674 22.2471 56.8737 22.6505 56.1862 22.9346C55.5044 23.2244 54.7174 23.3693 53.8254 23.3693ZM72.0704 18.4602L74.9682 1.00566H81.9568C83.2409 1.00566 84.2807 1.196 85.0761 1.57668C85.8772 1.95736 86.4369 2.48577 86.7551 3.16191C87.0733 3.83236 87.1585 4.60509 87.0108 5.48009C86.8914 6.16191 86.65 6.7585 86.2863 7.26986C85.9284 7.78123 85.4852 8.20168 84.9568 8.53123C84.4284 8.86077 83.8545 9.09373 83.2352 9.23009L83.2011 9.40055C83.8602 9.42895 84.4539 9.61645 84.9824 9.96305C85.5108 10.304 85.9057 10.7869 86.167 11.4119C86.4284 12.0369 86.488 12.7784 86.346 13.6363C86.1926 14.5625 85.8261 15.3892 85.2466 16.1165C84.667 16.838 83.8943 17.4091 82.9284 17.8295C81.9682 18.25 80.8346 18.4602 79.5278 18.4602H72.0704ZM76.2721 15.4432H79.2807C80.3034 15.4432 81.0846 15.2443 81.6244 14.8466C82.1642 14.4488 82.488 13.9233 82.596 13.2699C82.6699 12.7869 82.6216 12.3608 82.4511 11.9915C82.2863 11.6221 82.0051 11.3324 81.6074 11.1221C81.2153 10.9119 80.7182 10.8068 80.1159 10.8068H77.0307L76.2721 15.4432ZM77.4568 8.30964H80.1926C80.6926 8.30964 81.1557 8.22157 81.5818 8.04543C82.0136 7.86361 82.3687 7.60793 82.6471 7.27839C82.9312 6.94316 83.1102 6.54827 83.1841 6.09373C83.2863 5.45736 83.1443 4.94884 82.7579 4.56816C82.3772 4.1818 81.7807 3.98861 80.9682 3.98861H78.1727L77.4568 8.30964ZM93.8012 18.7159C92.4603 18.7159 91.3495 18.4432 90.4689 17.8977C89.5882 17.3466 88.9689 16.5682 88.6109 15.5625C88.2586 14.5511 88.199 13.3551 88.4319 11.9744C88.6592 10.6278 89.1166 9.446 89.8041 8.42896C90.4973 7.41191 91.3666 6.6193 92.412 6.05111C93.4575 5.48293 94.6223 5.19884 95.9064 5.19884C96.77 5.19884 97.5512 5.33805 98.2501 5.61646C98.9547 5.88918 99.5399 6.30395 100.006 6.86077C100.472 7.41191 100.79 8.10225 100.96 8.9318C101.136 9.76134 101.134 10.7329 100.952 11.8466L100.79 12.8437H89.7444L90.0939 10.5937H97.7302C97.8155 10.071 97.7814 9.60793 97.628 9.20452C97.4745 8.80111 97.2189 8.48577 96.8609 8.2585C96.503 8.02555 96.0626 7.90907 95.5399 7.90907C95.0058 7.90907 94.5058 8.03975 94.0399 8.30111C93.574 8.56248 93.1819 8.90623 92.8637 9.33236C92.5512 9.75282 92.3495 10.2102 92.2586 10.7045L91.8581 12.9375C91.7444 13.625 91.7672 14.196 91.9262 14.6505C92.091 15.1051 92.3751 15.446 92.7785 15.6733C93.1819 15.8949 93.6933 16.0057 94.3126 16.0057C94.716 16.0057 95.0939 15.9488 95.4461 15.8352C95.8041 15.7216 96.1223 15.554 96.4007 15.3324C96.6791 15.1051 96.9064 14.8238 97.0825 14.4886L100.398 14.7102C100.091 15.517 99.6251 16.2216 99.0001 16.8238C98.3751 17.4204 97.6223 17.8863 96.7416 18.2216C95.8666 18.5511 94.8865 18.7159 93.8012 18.7159ZM111.382 5.3693L110.93 8.09657H103.038L103.498 5.3693H111.382ZM105.799 2.23293H109.43L107.401 14.4375C107.345 14.7727 107.353 15.0341 107.427 15.2216C107.501 15.4034 107.623 15.5312 107.793 15.6051C107.97 15.679 108.18 15.7159 108.424 15.7159C108.595 15.7159 108.768 15.7017 108.944 15.6733C109.12 15.6392 109.254 15.6136 109.345 15.5966L109.481 18.2983C109.276 18.3608 109.001 18.429 108.654 18.5028C108.313 18.5767 107.91 18.6221 107.444 18.6392C106.558 18.6733 105.808 18.5568 105.194 18.2898C104.58 18.017 104.14 17.5994 103.873 17.0369C103.606 16.4744 103.549 15.767 103.703 14.9148L105.799 2.23293Z" fill="#0E65D7"/>
</svg>
